<svg width="31" height="30" viewBox="0 0 31 30" fill="none" xmlns="http://www.w3.org/2000/svg">
<circle cx="15.5" cy="15" r="15" fill="white"/>
<path d="M21.1985 11.8295C20.2258 11.4391 19.1995 11.1605 18.1451 11.0006C18.1355 10.9992 18.1257 11.0004 18.117 11.004C18.1082 11.0077 18.101 11.0137 18.0963 11.0211C17.9641 11.2261 17.8179 11.4942 17.7157 11.7041C16.5791 11.5532 15.423 11.5532 14.2863 11.7041C14.1724 11.4702 14.0434 11.2422 13.9001 11.0211C13.8953 11.0137 13.8881 11.0079 13.8794 11.0042C13.8707 11.0006 13.8609 10.9993 13.8514 11.0006C12.7967 11.1596 11.7701 11.4384 10.7979 11.8295C10.7896 11.8323 10.7827 11.8375 10.7783 11.8443C8.8339 14.3853 8.30047 16.864 8.56203 19.3115C8.56297 19.323 8.57141 19.3344 8.58172 19.3418C9.71395 20.0754 10.9804 20.6354 12.327 20.9981C12.3365 21.0007 12.3467 21.0006 12.3562 20.9978C12.3656 20.995 12.3738 20.9897 12.3795 20.9825C12.6682 20.6381 12.9251 20.2749 13.1464 19.8928C13.151 19.885 13.1525 19.876 13.1509 19.8673C13.1492 19.8586 13.1443 19.8505 13.137 19.8444C13.1321 19.8404 13.1264 19.8374 13.1201 19.8354C12.7162 19.6997 12.325 19.5365 11.9501 19.3476C11.9397 19.3424 11.9319 19.3339 11.9284 19.3238C11.9249 19.3137 11.926 19.3028 11.9314 19.2934C11.9346 19.2873 11.9394 19.282 11.9454 19.2779C12.0242 19.2262 12.1029 19.1721 12.1779 19.118C12.1846 19.1133 12.1925 19.1103 12.2009 19.1093C12.2094 19.1083 12.2179 19.1093 12.2257 19.1122C14.681 20.0929 17.3388 20.0929 19.7641 19.1122C19.7722 19.1092 19.7811 19.1081 19.7899 19.1091C19.7986 19.1101 19.8069 19.1132 19.8138 19.118C19.8888 19.1721 19.9675 19.2262 20.0463 19.2779C20.0527 19.2819 20.0578 19.2873 20.0612 19.2936C20.0646 19.2998 20.0662 19.3067 20.0658 19.3136C20.0655 19.3205 20.0631 19.3272 20.0591 19.3331C20.055 19.3391 20.0493 19.344 20.0425 19.3476C19.6685 19.5383 19.2768 19.7012 18.8716 19.8346C18.8651 19.8367 18.8593 19.8399 18.8544 19.8442C18.8496 19.8484 18.8458 19.8536 18.8435 19.8592C18.8413 19.8647 18.8405 19.8705 18.8409 19.8763C18.8414 19.882 18.8432 19.8877 18.8463 19.8928C19.0713 20.2741 19.3291 20.6381 19.6122 20.9825C19.6179 20.9897 19.6261 20.995 19.6356 20.9978C19.645 21.0006 19.6552 21.0007 19.6647 20.9981C21.0136 20.6365 22.2821 20.0764 23.4156 19.3418C23.4213 19.3384 23.426 19.3339 23.4294 19.3286C23.4328 19.3234 23.4349 19.3175 23.4353 19.3115C23.7484 16.4819 22.9113 14.0237 21.2172 11.8451C21.2155 11.8415 21.213 11.8383 21.2097 11.8356C21.2065 11.8329 21.2027 11.8308 21.1985 11.8295ZM13.5129 17.8208C12.7732 17.8208 12.1648 17.2272 12.1648 16.4991C12.1648 15.7702 12.762 15.1765 13.5129 15.1765C14.2695 15.1765 14.8723 15.7751 14.861 16.4991C14.861 17.2272 14.2638 17.8208 13.5129 17.8208ZM18.4966 17.8208C17.7579 17.8208 17.1485 17.2272 17.1485 16.4991C17.1485 15.7702 17.7457 15.1765 18.4966 15.1765C19.2532 15.1765 19.8569 15.7751 19.8447 16.4991C19.8447 17.2272 19.2532 17.8208 18.4966 17.8208Z" fill="black"/>
</svg>
