<svg width="31" height="30" viewBox="0 0 31 30" fill="none" xmlns="http://www.w3.org/2000/svg">
<circle cx="15.5" cy="15" r="15" fill="white"/>
<path fill-rule="evenodd" clip-rule="evenodd" d="M12.908 7.045C13.7077 7.00818 13.9627 7 16 7C18.0373 7 18.2923 7.00886 19.0914 7.045C19.8905 7.08114 20.4359 7.20864 20.9132 7.39341C21.413 7.58227 21.8664 7.8775 22.2414 8.25932C22.6232 8.63364 22.9177 9.08636 23.1059 9.58682C23.2914 10.0641 23.4182 10.6095 23.455 11.4073C23.4918 12.2084 23.5 12.4634 23.5 14.5C23.5 16.5373 23.4911 16.7923 23.455 17.592C23.4189 18.3898 23.2914 18.9352 23.1059 19.4125C22.9177 19.913 22.6227 20.3665 22.2414 20.7414C21.8664 21.1232 21.413 21.4177 20.9132 21.6059C20.4359 21.7914 19.8905 21.9182 19.0927 21.955C18.2923 21.9918 18.0373 22 16 22C13.9627 22 13.7077 21.9911 12.908 21.955C12.1102 21.9189 11.5648 21.7914 11.0875 21.6059C10.587 21.4177 10.1335 21.1227 9.75864 20.7414C9.37708 20.3668 9.08181 19.9136 8.89341 19.4132C8.70864 18.9359 8.58182 18.3905 8.545 17.5927C8.50818 16.7916 8.5 16.5366 8.5 14.5C8.5 12.4627 8.50886 12.2077 8.545 11.4086C8.58114 10.6095 8.70864 10.0641 8.89341 9.58682C9.08208 9.08642 9.37758 8.63317 9.75932 8.25864C10.1337 7.87716 10.5867 7.58189 11.0868 7.39341C11.5641 7.20864 12.1095 7.08182 12.9073 7.045H12.908ZM19.0307 8.395C18.2398 8.35886 18.0025 8.35136 16 8.35136C13.9975 8.35136 13.7602 8.35886 12.9693 8.395C12.2377 8.42841 11.8409 8.55045 11.5764 8.65341C11.2266 8.78977 10.9764 8.95136 10.7139 9.21386C10.465 9.45594 10.2735 9.75065 10.1534 10.0764C10.0505 10.3409 9.92841 10.7377 9.895 11.4693C9.85886 12.2602 9.85136 12.4975 9.85136 14.5C9.85136 16.5025 9.85886 16.7398 9.895 17.5307C9.92841 18.2623 10.0505 18.6591 10.1534 18.9236C10.2734 19.2489 10.465 19.5441 10.7139 19.7861C10.9559 20.035 11.2511 20.2266 11.5764 20.3466C11.8409 20.4495 12.2377 20.5716 12.9693 20.605C13.7602 20.6411 13.9968 20.6486 16 20.6486C18.0032 20.6486 18.2398 20.6411 19.0307 20.605C19.7623 20.5716 20.1591 20.4495 20.4236 20.3466C20.7734 20.2102 21.0236 20.0486 21.2861 19.7861C21.535 19.5441 21.7266 19.2489 21.8466 18.9236C21.9495 18.6591 22.0716 18.2623 22.105 17.5307C22.1411 16.7398 22.1486 16.5025 22.1486 14.5C22.1486 12.4975 22.1411 12.2602 22.105 11.4693C22.0716 10.7377 21.9495 10.3409 21.8466 10.0764C21.7102 9.72659 21.5486 9.47636 21.2861 9.21386C21.044 8.96505 20.7493 8.77355 20.4236 8.65341C20.1591 8.55045 19.7623 8.42841 19.0307 8.395ZM15.042 16.812C15.577 17.0347 16.1728 17.0648 16.7275 16.8971C17.2821 16.7294 17.7614 16.3743 18.0834 15.8924C18.4053 15.4106 18.55 14.832 18.4928 14.2553C18.4355 13.6786 18.1798 13.1398 17.7693 12.7307C17.5077 12.4692 17.1913 12.269 16.843 12.1444C16.4946 12.0199 16.123 11.9741 15.7549 12.0104C15.3867 12.0467 15.0312 12.1642 14.714 12.3544C14.3967 12.5446 14.1255 12.8028 13.92 13.1104C13.7145 13.4179 13.5797 13.7672 13.5254 14.1332C13.471 14.4991 13.4985 14.8725 13.6058 15.2265C13.7131 15.5805 13.8976 15.9063 14.1459 16.1805C14.3943 16.4547 14.7003 16.6704 15.042 16.812ZM13.2741 11.7741C13.6321 11.4161 14.057 11.1322 14.5247 10.9384C14.9925 10.7447 15.4938 10.645 16 10.645C16.5062 10.645 17.0075 10.7447 17.4753 10.9384C17.943 11.1322 18.3679 11.4161 18.7259 11.7741C19.0839 12.1321 19.3678 12.557 19.5616 13.0247C19.7553 13.4925 19.855 13.9938 19.855 14.5C19.855 15.0062 19.7553 15.5075 19.5616 15.9753C19.3678 16.443 19.0839 16.8679 18.7259 17.2259C18.003 17.9489 17.0224 18.355 16 18.355C14.9776 18.355 13.997 17.9489 13.2741 17.2259C12.5511 16.503 12.145 15.5224 12.145 14.5C12.145 13.4776 12.5511 12.497 13.2741 11.7741ZM20.71 11.2191C20.7987 11.1354 20.8697 11.0348 20.9188 10.9232C20.968 10.8115 20.9942 10.6912 20.996 10.5693C20.9977 10.4473 20.975 10.3263 20.9292 10.2133C20.8833 10.1003 20.8153 9.99762 20.7291 9.91139C20.6428 9.82516 20.5402 9.75711 20.4272 9.71126C20.3142 9.66542 20.1931 9.64271 20.0712 9.64449C19.9492 9.64627 19.8289 9.67249 19.7173 9.72161C19.6057 9.77073 19.505 9.84175 19.4214 9.93045C19.2586 10.103 19.1695 10.3321 19.173 10.5693C19.1764 10.8064 19.2722 11.0329 19.4399 11.2006C19.6076 11.3683 19.834 11.464 20.0712 11.4675C20.3083 11.4709 20.5375 11.3818 20.71 11.2191Z" fill="#011C2A"/>
</svg>
