<svg width="19" height="18" viewBox="0 0 19 18" fill="none" xmlns="http://www.w3.org/2000/svg">
<path d="M10.4998 4.99999C12.6028 4.99999 13.4998 5.89699 13.4998 7.99999H15.4998C15.4998 4.77499 13.7248 2.99999 10.4998 2.99999V4.99999ZM13.9218 10.443C13.7296 10.2683 13.4771 10.1752 13.2176 10.1832C12.9581 10.1912 12.7118 10.2998 12.5308 10.486L10.1378 12.947C9.56179 12.837 8.40379 12.476 7.21179 11.287C6.01979 10.094 5.65879 8.93299 5.55179 8.361L8.01079 5.96699C8.19721 5.78612 8.30593 5.53982 8.31396 5.2802C8.32198 5.02059 8.22868 4.76804 8.05379 4.57599L4.35879 0.512995C4.18384 0.320352 3.94067 0.203499 3.68095 0.187255C3.42122 0.17101 3.16539 0.256653 2.96779 0.425995L0.797794 2.28699C0.624905 2.46051 0.521713 2.69145 0.507794 2.93599C0.492794 3.18599 0.206794 9.108 4.79879 13.702C8.80479 17.707 13.8228 18 15.2048 18C15.4068 18 15.5308 17.994 15.5638 17.992C15.8083 17.9783 16.0391 17.8747 16.2118 17.701L18.0718 15.53C18.2413 15.3325 18.3271 15.0768 18.311 14.817C18.295 14.5573 18.1783 14.3141 17.9858 14.139L13.9218 10.443Z" fill="white"/>
</svg>
