<svg width="31" height="30" viewBox="0 0 31 30" fill="none" xmlns="http://www.w3.org/2000/svg">
<circle cx="15.5" cy="15" r="15" fill="white"/>
<path d="M23.5 10.4255C22.9484 10.6598 22.3481 10.8284 21.7298 10.8941C22.3717 10.5185 22.8525 9.92521 23.0818 9.22545C22.4794 9.57833 21.8195 9.82578 21.1313 9.95681C20.8437 9.65402 20.4958 9.4128 20.1094 9.24819C19.7229 9.08357 19.3062 8.99909 18.8852 9.00001C17.1816 9.00001 15.8116 10.3598 15.8116 12.0284C15.8116 12.2627 15.8405 12.497 15.8873 12.7225C13.3366 12.5911 11.0616 11.3911 9.54915 9.55385C9.27357 10.0174 9.12916 10.5451 9.13093 11.0823C9.13093 12.1331 9.67354 13.0598 10.501 13.6047C10.0133 13.5858 9.53715 13.4538 9.1111 13.2195V13.2568C9.1111 14.7284 10.1675 15.9479 11.5754 16.2284C11.311 16.296 11.0391 16.3306 10.766 16.3314C10.5659 16.3314 10.3766 16.3118 10.1855 16.2852C10.5749 17.4852 11.7087 18.3568 13.0589 18.3852C12.0026 19.2 10.6794 19.6793 9.2427 19.6793C8.98492 19.6793 8.74697 19.6704 8.5 19.642C9.86282 20.503 11.4798 21 13.2212 21C18.8744 21 21.9677 16.3882 21.9677 12.3852C21.9677 12.2539 21.9677 12.1225 21.9587 11.9911C22.5572 11.5598 23.0818 11.0254 23.5 10.4255Z" fill="black"/>
</svg>
