<svg width="32" height="32" viewBox="0 0 32 32" fill="none" xmlns="http://www.w3.org/2000/svg">
<rect x="0.368164" y="0.912598" width="30.9067" height="30.9067" rx="15.4534" fill="#252525"/>
<path fill-rule="evenodd" clip-rule="evenodd" d="M10.7197 12.8444C10.8203 12.5146 11.127 12.2747 11.4897 12.2747H20.5041C20.8668 12.2747 21.1735 12.5146 21.2741 12.8444L15.9969 16.3625L10.7197 12.8444ZM9.71899 13.0861V13.0795V13.0861ZM9.71899 13.0861V19.5184C9.71899 20.4964 10.5118 21.2891 11.4897 21.2891H20.5041C21.4821 21.2891 22.2748 20.4964 22.2748 19.5184V13.0861V13.0795M10.6848 13.9819L15.729 17.3447C15.8913 17.4528 16.1026 17.4528 16.2648 17.3447L21.309 13.9819V19.5184C21.309 19.9629 20.9487 20.3233 20.5041 20.3233H11.4897C11.0452 20.3233 10.6848 19.9629 10.6848 19.5184V13.9819ZM9.71902 13.0707C9.72378 12.0968 10.5147 11.3088 11.4897 11.3088H20.5041C21.4791 11.3088 22.2701 12.0968 22.2748 13.0707" fill="white"/>
</svg>
