<svg width="32" height="32" viewBox="0 0 32 32" fill="none" xmlns="http://www.w3.org/2000/svg">
<rect x="0.725098" y="0.912598" width="30.9067" height="30.9067" rx="15.4534" fill="#252525"/>
<path fill-rule="evenodd" clip-rule="evenodd" d="M12.3151 11.6978C11.8706 11.6978 11.5103 12.0581 11.5103 12.5026V20.2293C11.5103 20.6738 11.8706 21.0342 12.3151 21.0342H20.0418C20.4863 21.0342 20.8467 20.6738 20.8467 20.2293V12.5026C20.8467 12.0581 20.4863 11.6978 20.0418 11.6978H12.3151ZM10.5444 12.5026C10.5444 11.5247 11.3372 10.7319 12.3151 10.7319H20.0418C21.0197 10.7319 21.8125 11.5247 21.8125 12.5026V20.2293C21.8125 21.2072 21.0197 22 20.0418 22H12.3151C11.3372 22 10.5444 21.2072 10.5444 20.2293V12.5026ZM13.6032 15.2391C13.8699 15.2391 14.0861 15.4553 14.0861 15.722V18.9415C14.0861 19.2082 13.8699 19.4244 13.6032 19.4244C13.3365 19.4244 13.1203 19.2082 13.1203 18.9415V15.722C13.1203 15.4553 13.3365 15.2391 13.6032 15.2391ZM14.0861 13.7904C14.0861 13.5237 13.8699 13.3075 13.6032 13.3075C13.3365 13.3075 13.1203 13.5237 13.1203 13.7904V13.7979C13.1203 14.0646 13.3365 14.2808 13.6032 14.2808C13.8699 14.2808 14.0861 14.0646 14.0861 13.7979V13.7904ZM16.5909 15.4706C16.506 15.3318 16.3531 15.2391 16.1785 15.2391C15.9118 15.2391 15.6956 15.4553 15.6956 15.722V17.0098V18.9415C15.6956 19.2082 15.9118 19.4244 16.1785 19.4244C16.4452 19.4244 16.6614 19.2082 16.6614 18.9415V17.0098C16.6614 16.7963 16.7462 16.5916 16.8971 16.4407C17.0481 16.2897 17.2528 16.2049 17.4663 16.2049C17.6797 16.2049 17.8844 16.2897 18.0354 16.4407C18.1863 16.5916 18.2711 16.7963 18.2711 17.0098V18.9415C18.2711 19.2082 18.4873 19.4244 18.754 19.4244C19.0207 19.4244 19.2369 19.2082 19.2369 18.9415V17.0098C19.2369 16.5402 19.0504 16.0898 18.7183 15.7577C18.3863 15.4257 17.9359 15.2391 17.4663 15.2391C17.1566 15.2391 16.8554 15.3202 16.5909 15.4706Z" fill="white"/>
</svg>
