<svg width="98" height="100" viewBox="0 0 98 100" fill="none" xmlns="http://www.w3.org/2000/svg">
<ellipse cx="48.609" cy="49.7667" rx="48.609" ry="49.6485" fill="#002B5B"/>
<path d="M64.8036 57.3072C64.9644 57.5922 65.0081 57.9305 64.9251 58.2483C64.8421 58.5661 64.6392 58.8373 64.3609 59.0026L49.7549 67.705C49.5688 67.8158 49.3572 67.8742 49.1418 67.8742C48.9264 67.8742 48.7148 67.8158 48.5287 67.705L33.9227 59.0026C33.6484 58.8342 33.45 58.5623 33.3706 58.2456C33.2911 57.929 33.337 57.5931 33.4982 57.3107C33.6594 57.0283 33.9231 56.8222 34.2321 56.7369C34.541 56.6516 34.8704 56.694 35.149 56.855L49.1464 65.1922L63.1437 56.855C63.4227 56.6908 63.754 56.6462 64.0651 56.7309C64.3762 56.8157 64.6418 57.0229 64.8036 57.3072ZM63.1437 49.3958L49.1464 57.733L35.149 49.3958C34.8718 49.2549 34.5525 49.2271 34.2561 49.3182C33.9596 49.4092 33.7082 49.6122 33.5531 49.8859C33.398 50.1596 33.3508 50.4833 33.4212 50.7913C33.4915 51.0992 33.6741 51.3682 33.9318 51.5435L48.5378 60.2458C48.7239 60.3567 48.9355 60.4151 49.1509 60.4151C49.3664 60.4151 49.578 60.3567 49.7641 60.2458L64.37 51.5435C64.5103 51.4624 64.6334 51.3537 64.7323 51.2236C64.8311 51.0935 64.9036 50.9447 64.9457 50.7858C64.9877 50.6269 64.9985 50.461 64.9772 50.2978C64.956 50.1346 64.9033 49.9773 64.8221 49.8351C64.7409 49.6929 64.6328 49.5686 64.5042 49.4694C64.3756 49.3702 64.229 49.298 64.0728 49.2572C63.9167 49.2163 63.7541 49.2075 63.5947 49.2313C63.4352 49.2551 63.2819 49.311 63.1437 49.3958ZM33.3232 43.0105C33.3237 42.7927 33.3802 42.5789 33.487 42.3905C33.5938 42.202 33.7472 42.0456 33.9318 41.9367L48.5378 33.2343C48.7239 33.1235 48.9355 33.0651 49.1509 33.0651C49.3664 33.0651 49.578 33.1235 49.7641 33.2343L64.37 41.9367C64.5538 42.0462 64.7062 42.2029 64.8121 42.3913C64.9181 42.5797 64.9738 42.7932 64.9738 43.0105C64.9738 43.2278 64.9181 43.4412 64.8121 43.6296C64.7062 43.818 64.5538 43.9748 64.37 44.0843L49.7641 52.7866C49.578 52.8975 49.3664 52.9559 49.1509 52.9559C48.9355 52.9559 48.7239 52.8975 48.5378 52.7866L33.9318 44.0843C33.7472 43.9754 33.5938 43.8189 33.487 43.6305C33.3802 43.442 33.3237 43.2282 33.3232 43.0105ZM36.9565 43.0105L49.1464 50.2738L61.3363 43.0105L49.1464 35.7471L36.9565 43.0105Z" fill="white"/>
</svg>
