<svg width="108" height="16" viewBox="0 0 108 16" fill="none" xmlns="http://www.w3.org/2000/svg">
<g clip-path="url(#clip0_60_167)">
<path d="M7.2028 1.38335L5.38892 5.06112L1.33058 5.65279C0.602805 5.75835 0.311138 6.65557 0.838916 7.16946L3.77503 10.0306L3.08058 14.0722C2.95558 14.8028 3.72503 15.35 4.36947 15.0083L8.00003 13.1L11.6306 15.0083C12.275 15.3472 13.0445 14.8028 12.9195 14.0722L12.225 10.0306L15.1611 7.16946C15.6889 6.65557 15.3972 5.75835 14.6695 5.65279L10.6111 5.06112L8.79725 1.38335C8.47225 0.727791 7.53058 0.719458 7.2028 1.38335Z" fill="#FF9900"/>
</g>
<g clip-path="url(#clip1_60_167)">
<path d="M30.2028 1.38335L28.3889 5.06112L24.3306 5.65279C23.6028 5.75835 23.3111 6.65557 23.8389 7.16946L26.775 10.0306L26.0806 14.0722C25.9556 14.8028 26.725 15.35 27.3695 15.0083L31 13.1L34.6306 15.0083C35.275 15.3472 36.0445 14.8028 35.9195 14.0722L35.225 10.0306L38.1611 7.16946C38.6889 6.65557 38.3972 5.75835 37.6695 5.65279L33.6111 5.06112L31.7972 1.38335C31.4722 0.727791 30.5306 0.719458 30.2028 1.38335Z" fill="#FF9900"/>
</g>
<g clip-path="url(#clip2_60_167)">
<path d="M53.2028 1.38335L51.3889 5.06112L47.3306 5.65279C46.6028 5.75835 46.3111 6.65557 46.8389 7.16946L49.775 10.0306L49.0806 14.0722C48.9556 14.8028 49.725 15.35 50.3695 15.0083L54 13.1L57.6306 15.0083C58.275 15.3472 59.0445 14.8028 58.9195 14.0722L58.225 10.0306L61.1611 7.16946C61.6889 6.65557 61.3972 5.75835 60.6695 5.65279L56.6111 5.06112L54.7972 1.38335C54.4722 0.727791 53.5306 0.719458 53.2028 1.38335Z" fill="#FF9900"/>
</g>
<g clip-path="url(#clip3_60_167)">
<path d="M76.2028 1.38335L74.3889 5.06112L70.3306 5.65279C69.6028 5.75835 69.3111 6.65557 69.8389 7.16946L72.775 10.0306L72.0806 14.0722C71.9556 14.8028 72.725 15.35 73.3695 15.0083L77 13.1L80.6306 15.0083C81.275 15.3472 82.0445 14.8028 81.9195 14.0722L81.225 10.0306L84.1611 7.16946C84.6889 6.65557 84.3972 5.75835 83.6695 5.65279L79.6111 5.06112L77.7972 1.38335C77.4722 0.727791 76.5306 0.719458 76.2028 1.38335Z" fill="#FF9900"/>
</g>
<g clip-path="url(#clip4_60_167)">
<path d="M107.18 5.47786L102.811 4.84174L100.859 0.889796C100.683 0.536662 100.341 0.358154 99.9984 0.358154C99.6581 0.358154 99.3181 0.534274 99.142 0.889796L97.1888 4.84144L92.8193 5.47696C92.0357 5.59039 91.7217 6.55427 92.2897 7.10651L95.4506 10.1811L94.7026 14.5238C94.5963 15.1441 95.0915 15.6417 95.6462 15.6417C95.7933 15.6417 95.9447 15.6068 96.09 15.5298L99.999 13.4796L103.908 15.5304C104.053 15.6065 104.204 15.6411 104.35 15.6411C104.906 15.6411 105.402 15.1453 105.295 14.5247L104.548 10.1817L107.71 7.10771C108.278 6.55547 107.964 5.59129 107.18 5.47786ZM103.546 9.15547L103.006 9.68144L103.133 10.4241L103.716 13.8107L100.667 12.211L99.9993 11.8605L100 2.39218L101.523 5.47547L101.857 6.15099L102.604 6.25965L106.014 6.75606L103.546 9.15547Z" fill="#FF9900"/>
</g>
<defs>
<clipPath id="clip0_60_167">
<rect width="16" height="16" fill="white"/>
</clipPath>
<clipPath id="clip1_60_167">
<rect width="16" height="16" fill="white" transform="translate(23)"/>
</clipPath>
<clipPath id="clip2_60_167">
<rect width="16" height="16" fill="white" transform="translate(46)"/>
</clipPath>
<clipPath id="clip3_60_167">
<rect width="16" height="16" fill="white" transform="translate(69)"/>
</clipPath>
<clipPath id="clip4_60_167">
<rect width="16" height="16" fill="white" transform="translate(92)"/>
</clipPath>
</defs>
</svg>
