<svg width="42" height="42" viewBox="0 0 42 42" fill="none" xmlns="http://www.w3.org/2000/svg">
<path d="M38.0625 2.625H27.5625C25.3887 2.625 23.625 4.38867 23.625 6.5625V17.0625C23.625 19.2363 25.3887 21 27.5625 21H34.125V26.25C34.125 29.1457 31.7707 31.5 28.875 31.5H28.2188C27.1277 31.5 26.25 32.3777 26.25 33.4688V37.4062C26.25 38.4973 27.1277 39.375 28.2188 39.375H28.875C36.1266 39.375 42 33.5016 42 26.25V6.5625C42 4.38867 40.2363 2.625 38.0625 2.625ZM14.4375 2.625H3.9375C1.76367 2.625 0 4.38867 0 6.5625V17.0625C0 19.2363 1.76367 21 3.9375 21H10.5V26.25C10.5 29.1457 8.1457 31.5 5.25 31.5H4.59375C3.50273 31.5 2.625 32.3777 2.625 33.4688V37.4062C2.625 38.4973 3.50273 39.375 4.59375 39.375H5.25C12.5016 39.375 18.375 33.5016 18.375 26.25V6.5625C18.375 4.38867 16.6113 2.625 14.4375 2.625Z" fill="#002B5B"/>
</svg>
