<svg width="142" height="29" viewBox="0 0 142 29" fill="none" xmlns="http://www.w3.org/2000/svg">
<g clip-path="url(#clip0_38_65)">
<g clip-path="url(#clip1_38_65)">
<path d="M13.3535 28.6484L21.0629 21.7322L18.2411 12.2848L14.4534 11.3832L14.8527 12.7107L17.1589 13.2561L19.3862 20.7138L11.0723 18.7156L8.8446 11.2572L10.1017 11.5687L9.70192 10.2415L7.70941 9.75256L5.02225e-06 16.6692L2.82269 26.1173L13.3535 28.6484ZM19.0432 21.8624L12.958 27.3216L4.64374 25.3242L10.7298 19.8647L19.0432 21.8624ZM1.47899 17.0244L7.56552 11.5652L9.79239 19.024L3.70629 24.4836L1.47899 17.0244Z" fill="#9F1C2D"/>
<path d="M13.1842 16.8214L16.9934 17.7494L16.5936 16.4218L14.2668 15.8502L12.0391 8.39173L20.3525 10.3899L22.5798 17.848L21.333 17.5558L21.7328 18.883L23.7154 19.3518L31.4248 12.436L28.603 2.98823L18.0718 0.456728L10.3624 7.37295L13.1842 16.8214ZM29.9463 12.0812L23.8602 17.5411L21.6324 10.0826L27.7185 4.62308L29.9463 12.0812ZM18.4681 1.78277L26.7819 3.78131L20.6958 9.24162L12.382 7.24309L18.4681 1.78277Z" fill="#9F1C2D"/>
</g>
<g clip-path="url(#clip2_38_65)">
<path d="M36.8966 21.1311C36.9143 20.9707 36.9454 20.7907 36.9897 20.5911C37.0296 20.4235 37.0872 20.2221 37.1626 19.9868C37.2379 19.7551 37.3488 19.5038 37.4951 19.2328C37.9605 19.3576 38.437 19.4681 38.9247 19.5644C39.3369 19.6499 39.7913 19.7266 40.2878 19.7943C40.7798 19.8656 41.2519 19.9013 41.7041 19.9013C42.3867 19.9013 42.9586 19.8585 43.4196 19.7729C43.8851 19.6909 44.2574 19.5679 44.5367 19.4039C44.8204 19.24 45.0221 19.035 45.1418 18.789C45.2659 18.5395 45.328 18.2525 45.328 17.9281C45.328 17.5573 45.2637 17.2436 45.1351 16.9869C45.011 16.7303 44.8204 16.5074 44.5633 16.3185C44.3106 16.1296 43.9848 15.9691 43.5858 15.8372C43.1869 15.7053 42.7148 15.577 42.1695 15.4522C41.2165 15.2419 40.4119 15.0137 39.7558 14.7678C39.0953 14.5218 38.5589 14.2384 38.1467 13.9175C37.7389 13.5967 37.4441 13.2331 37.2623 12.8267C37.0806 12.4167 36.9897 11.9515 36.9897 11.431C36.9897 10.6788 37.1338 10.0353 37.4219 9.5006C37.7145 8.96229 38.1267 8.52203 38.6587 8.17979C39.1906 7.84113 39.8356 7.59158 40.5936 7.43116C41.3517 7.27074 42.1961 7.19053 43.127 7.19053C43.8496 7.19053 44.4813 7.23509 45.0221 7.32421C45.5629 7.4169 46.0195 7.51494 46.3919 7.61832C46.8218 7.74309 47.1986 7.88569 47.5222 8.04611C47.4956 8.20653 47.4424 8.38121 47.3627 8.57015C47.2962 8.73057 47.2009 8.91773 47.0767 9.13163C46.957 9.34909 46.7886 9.58259 46.5714 9.83213C46.3098 9.6931 46.0062 9.56833 45.6604 9.45782C45.359 9.358 44.9933 9.26888 44.5633 9.19045C44.1377 9.10846 43.6435 9.06746 43.0805 9.06746C42.4643 9.06746 41.9457 9.10667 41.5245 9.1851C41.1079 9.25997 40.7643 9.37939 40.4939 9.54338C40.2235 9.70736 40.0307 9.91413 39.9154 10.1637C39.8002 10.4097 39.7425 10.7038 39.7425 11.046C39.7425 11.4274 39.8024 11.7447 39.9221 11.9978C40.0417 12.2545 40.2368 12.4702 40.5072 12.6449C40.7776 12.8231 41.1256 12.9782 41.5511 13.1101C41.9811 13.242 42.4998 13.3774 43.1071 13.5165C44.0158 13.7197 44.7894 13.9371 45.4277 14.1689C46.0705 14.397 46.5936 14.6644 46.9969 14.971C47.3959 15.2775 47.6885 15.6412 47.8747 16.0618C48.0608 16.4825 48.1539 16.9887 48.1539 17.5805C48.1539 18.3113 48.0387 18.9476 47.8082 19.4895C47.5732 20.0278 47.2009 20.4788 46.6911 20.8424C46.1769 21.2024 45.5186 21.4716 44.7162 21.6498C43.9094 21.8281 42.9386 21.9172 41.8038 21.9172C41.13 21.9172 40.4939 21.8762 39.8955 21.7942C39.297 21.7158 38.7784 21.6285 38.3395 21.5322C37.812 21.411 37.331 21.2773 36.8966 21.1311ZM51.5983 21.6445V7.46325H54.5306V21.6445H51.5983ZM58.6399 21.6445V7.46325H63.3011L67.7561 16.3185L69.5315 20.3504L69.3653 16.3185L69.2722 7.46325H72.0782V21.6445H67.5301L62.9753 12.7678L61.1933 8.67175L61.3661 12.7678L61.4526 21.6445H58.6399ZM76.1808 21.6445V7.46325H79.1198V21.6445H76.1808ZM82.5575 21.1311C82.5753 20.9707 82.6063 20.7907 82.6506 20.5911C82.695 20.4235 82.7526 20.2221 82.8235 19.9868C82.8989 19.7551 83.0097 19.5038 83.156 19.2328C83.6214 19.3576 84.098 19.4681 84.5856 19.5644C85.0023 19.6499 85.4567 19.7266 85.9487 19.7943C86.4408 19.8656 86.9129 19.9013 87.365 19.9013C88.0477 19.9013 88.6217 19.8585 89.0872 19.7729C89.5482 19.6909 89.9206 19.5679 90.2043 19.4039C90.4835 19.24 90.683 19.035 90.8027 18.789C90.9268 18.5395 90.9889 18.2525 90.9889 17.9281C90.9889 17.5573 90.9246 17.2436 90.7961 16.9869C90.6719 16.7303 90.4813 16.5074 90.2242 16.3185C89.9715 16.1296 89.6457 15.9691 89.2468 15.8372C88.8478 15.7053 88.3757 15.577 87.8305 15.4522C86.8774 15.2419 86.0728 15.0137 85.4168 14.7678C84.7563 14.5218 84.2221 14.2384 83.8143 13.9175C83.402 13.5967 83.105 13.2331 82.9233 12.8267C82.7415 12.4167 82.6506 11.9515 82.6506 11.431C82.6506 10.6788 82.7947 10.0353 83.0828 9.5006C83.3754 8.96229 83.7877 8.52203 84.3196 8.17979C84.8516 7.84113 85.4965 7.59158 86.2546 7.43116C87.0126 7.27074 87.8593 7.19053 88.7946 7.19053C89.5127 7.19053 90.1422 7.23509 90.683 7.32421C91.2238 7.4169 91.6804 7.51494 92.0528 7.61832C92.4872 7.74309 92.864 7.88569 93.1832 8.04611C93.1566 8.20653 93.1034 8.38121 93.0236 8.57015C92.9571 8.73057 92.8618 8.91773 92.7377 9.13163C92.618 9.34909 92.4495 9.58259 92.2323 9.83213C91.9752 9.6931 91.6738 9.56833 91.328 9.45782C91.0221 9.358 90.6542 9.26888 90.2242 9.19045C89.7987 9.10846 89.3044 9.06746 88.7414 9.06746C88.1252 9.06746 87.6066 9.10667 87.1855 9.1851C86.7688 9.25997 86.4252 9.37939 86.1548 9.54338C85.8889 9.70736 85.696 9.91413 85.5763 10.1637C85.4611 10.4097 85.4035 10.7038 85.4035 11.046C85.4035 11.4274 85.4633 11.7447 85.583 11.9978C85.7071 12.2545 85.9022 12.4702 86.1681 12.6449C86.4385 12.8231 86.7865 12.9782 87.2121 13.1101C87.6421 13.242 88.1607 13.3774 88.768 13.5165C89.6768 13.7197 90.4503 13.9371 91.0886 14.1689C91.7314 14.397 92.2545 14.6644 92.6579 14.971C93.0613 15.2775 93.3561 15.6412 93.5422 16.0618C93.7284 16.4825 93.8215 16.9887 93.8215 17.5805C93.8215 18.3113 93.704 18.9476 93.4691 19.4895C93.2341 20.0278 92.8618 20.4788 92.352 20.8424C91.8422 21.2024 91.1839 21.4716 90.3772 21.6498C89.5704 21.8281 88.5996 21.9172 87.4648 21.9172C86.791 21.9172 86.1548 21.8762 85.5564 21.7942C84.9624 21.7158 84.4437 21.6285 84.0005 21.5322C83.4729 21.411 82.992 21.2773 82.5575 21.1311ZM95.0782 21.6445L100.198 7.46325H104.627L109.9 21.6445H106.947L105.338 17.3078H99.6397L98.1037 21.6445H95.0782ZM100.205 15.495H104.726L102.353 8.53807L100.205 15.495ZM111.821 21.6445V7.46325H116.482L120.937 16.3185L122.713 20.3504L122.547 16.3185L122.454 7.46325H125.26V21.6445H120.711L116.157 12.7678L114.375 8.67175L114.547 12.7678L114.634 21.6445H111.821ZM127.181 21.6445L132.301 7.46325H136.73L142.003 21.6445H139.05L137.441 17.3078H131.743L130.207 21.6445H127.181ZM132.314 15.495H136.829L134.456 8.53807L132.314 15.495Z" fill="#9F1C2D"/>
</g>
</g>
<defs>
<clipPath id="clip0_38_65">
<rect width="142" height="28.1917" fill="white" transform="translate(0 0.456726)"/>
</clipPath>
<clipPath id="clip1_38_65">
<rect width="31.4248" height="28.1917" fill="white" transform="translate(0 0.456726)"/>
</clipPath>
<clipPath id="clip2_38_65">
<rect width="105.104" height="14.7262" fill="white" transform="translate(36.8964 7.18944)"/>
</clipPath>
</defs>
</svg>
